<svg width="40" height="29" viewBox="0 0 40 29" fill="none" xmlns="http://www.w3.org/2000/svg">
<path d="M38.2158 0.3125H1.78417C1.0696 0.3125 0.488831 0.858359 0.488831 1.52938V3.97741C0.488831 4.0902 0.619074 4.21965 0.725498 4.272L19.8748 14.5434C19.9245 14.5705 19.9802 14.5829 20.036 14.5829C20.0927 14.5829 20.15 14.5691 20.2002 14.541L38.7707 4.28199C38.8751 4.22726 39.1518 4.08259 39.2557 4.01596C39.3814 3.93553 39.5112 3.86272 39.5112 3.71852V1.5289C39.5112 0.858359 38.9304 0.3125 38.2158 0.3125Z" fill="white"/>
<path d="M39.3495 7.66529C39.2482 7.61008 39.1245 7.61246 39.0227 7.66719L28.5135 13.4737C28.4294 13.5193 28.3711 13.6002 28.3569 13.6916C28.3442 13.7825 28.3746 13.8753 28.44 13.9424L38.9507 24.5821C39.013 24.6454 39.0982 24.6792 39.1874 24.6792C39.2274 24.6792 39.2679 24.6721 39.3059 24.6588C39.4301 24.6126 39.5112 24.5008 39.5112 24.3751V7.92941C39.5112 7.81996 39.4499 7.71954 39.3495 7.66529Z" fill="white"/>
<path d="M25.4848 15.4261C25.3815 15.3209 25.2152 15.2976 25.084 15.3699L20.8716 17.6976C20.377 17.9707 19.7435 17.9731 19.2458 17.7076L15.5387 15.7188C15.4161 15.6536 15.2615 15.6693 15.1581 15.7597L1.08068 28.0218C1.00567 28.0874 0.968171 28.1821 0.97932 28.2778C0.990469 28.3734 1.04976 28.4591 1.13845 28.5072C1.35738 28.6281 1.56871 28.6856 1.78359 28.6856H37.8427C37.972 28.6856 38.0885 28.6138 38.1392 28.5024C38.1909 28.392 38.1676 28.263 38.0794 28.1745L25.4848 15.4261Z" fill="white"/>
<path d="M12.0607 14.3098C12.1367 14.2446 12.1747 14.1485 12.1636 14.0528C12.1525 13.9567 12.0916 13.8715 12.0024 13.823L0.971795 7.90658C0.873479 7.85327 0.749317 7.85423 0.648974 7.90848C0.549645 7.96273 0.488831 8.06315 0.488831 8.17118V23.6951C0.488831 23.8155 0.564848 23.9249 0.682422 23.973C0.723978 23.9906 0.768068 23.9992 0.812665 23.9992C0.89223 23.9992 0.971795 23.9711 1.03261 23.9178L12.0607 14.3098Z" fill="white"/>
</svg>
