<svg width="33" height="31" viewBox="0 0 33 31" fill="none" xmlns="http://www.w3.org/2000/svg">
<path d="M32.4931 24.465C32.4167 24.0078 32.1209 23.6171 31.678 23.385L25.1248 19.6435L25.0709 19.6143C24.8062 19.4827 24.4999 19.4149 24.1854 19.4149C23.6363 19.4149 23.112 19.6165 22.7481 19.97L20.8139 21.8452C20.7312 21.9214 20.4615 22.0317 20.3796 22.0357C20.3572 22.0339 18.1291 21.8784 14.0272 17.903C9.93253 13.936 9.75882 11.7702 9.75744 11.7702C9.75973 11.6595 9.87219 11.399 9.95219 11.3184L11.6016 9.72053C12.1826 9.15616 12.3568 8.22057 12.0121 7.49583L8.36955 0.854085C8.10487 0.32604 7.59058 0 7.02007 0C6.61641 0 6.22692 0.162134 5.92246 0.456723L1.42645 4.80378C0.995362 5.21931 0.62416 5.94581 0.543246 6.53056C0.503931 6.81009 -0.293786 13.4824 9.14624 22.6315C17.1604 30.3966 23.4096 31 25.1353 31C25.5065 31 25.7227 30.9743 25.7643 30.9685C26.3659 30.8906 27.1148 30.5318 27.5431 30.1158L32.0355 25.763C32.4021 25.4059 32.5694 24.9341 32.4931 24.465Z" fill="white"/>
</svg>
