<svg width="38" height="33" viewBox="0 0 38 33" fill="none" xmlns="http://www.w3.org/2000/svg">
<path d="M34.7483 0H3.22015C1.7124 0 0.488831 1.06562 0.488831 2.37783V30.619C0.488831 31.933 1.7124 33 3.22015 33H34.7483C36.257 33 37.4888 31.933 37.4888 30.619V2.37783C37.4888 1.06562 36.257 0 34.7483 0ZM11.4624 28.1206H5.97202V12.3727H11.4624V28.1206ZM8.71722 10.2195C6.95818 10.2195 5.53625 8.94804 5.53625 7.38054C5.53625 5.81533 6.95818 4.54392 8.71722 4.54392C10.4721 4.54392 11.8977 5.81533 11.8977 7.38054C11.8977 8.94804 10.4721 10.2195 8.71722 10.2195ZM32.0159 28.1206H26.5343V20.4627C26.5343 18.6358 26.4942 16.2869 23.6817 16.2869C20.8255 16.2869 20.3902 18.2765 20.3902 20.3303V28.121H14.9044V12.3727H20.1692V14.5232H20.2443C20.9771 13.2857 22.7675 11.9799 25.4376 11.9799C30.9907 11.9799 32.0164 15.2405 32.0164 19.4824L32.0159 28.1206Z" fill="white"/>
</svg>
